<svg width="331" height="94" viewBox="0 0 331 94" fill="none" xmlns="http://www.w3.org/2000/svg">
<rect width="331" height="94" fill="white"/>
<path d="M82 13H30.4638L26 29.7252H42.8406L29 66L48.5217 59.0963L40.5 85.5L70.8406 37.4759L55.2174 44.0028L60.8986 29.7252H78.5507L82 13Z" stroke="#82B0DB" stroke-width="3.569"/>
<path d="M105.747 38.615C105.625 40.3077 104.998 41.6403 103.867 42.6127C102.743 43.5851 101.26 44.0713 99.4155 44.0713C97.3987 44.0713 95.8104 43.3942 94.6507 42.04C93.4982 40.6786 92.922 38.8131 92.922 36.4433V35.4816C92.922 33.969 93.1885 32.6364 93.7215 31.484C94.2546 30.3315 95.0145 29.4491 96.0013 28.8368C96.9953 28.2174 98.1478 27.9076 99.4588 27.9076C101.274 27.9076 102.736 28.3938 103.845 29.3663C104.955 30.3387 105.596 31.7036 105.769 33.4612H102.527C102.448 32.4456 102.164 31.7108 101.674 31.2571C101.191 30.7961 100.453 30.5656 99.4588 30.5656C98.3783 30.5656 97.568 30.9545 97.0277 31.7325C96.4947 32.5032 96.221 33.7025 96.2066 35.3304V36.5189C96.2066 38.2188 96.4623 39.4613 96.9737 40.2465C97.4923 41.0316 98.3063 41.4242 99.4155 41.4242C100.417 41.4242 101.162 41.1973 101.652 40.7435C102.149 40.2825 102.434 39.573 102.506 38.615H105.747ZM124.56 36.346C124.56 37.8947 124.286 39.2524 123.738 40.4193C123.191 41.5862 122.406 42.4866 121.383 43.1205C120.367 43.7544 119.2 44.0713 117.882 44.0713C116.579 44.0713 115.415 43.758 114.392 43.1313C113.37 42.5046 112.577 41.6114 112.015 40.4518C111.454 39.2849 111.169 37.9451 111.162 36.4324V35.6545C111.162 34.1059 111.439 32.7445 111.994 31.5704C112.556 30.3891 113.344 29.4851 114.36 28.8584C115.383 28.2246 116.55 27.9076 117.861 27.9076C119.172 27.9076 120.335 28.2246 121.351 28.8584C122.373 29.4851 123.162 30.3891 123.717 31.5704C124.279 32.7445 124.56 34.1023 124.56 35.6437V36.346ZM121.275 35.6329C121.275 33.9834 120.98 32.7301 120.389 31.8729C119.798 31.0158 118.956 30.5872 117.861 30.5872C116.773 30.5872 115.934 31.0122 115.343 31.8621C114.753 32.7049 114.454 33.9438 114.446 35.5789V36.346C114.446 37.9523 114.742 39.1984 115.332 40.0844C115.923 40.9704 116.773 41.4134 117.882 41.4134C118.97 41.4134 119.806 40.9884 120.389 40.1384C120.972 39.2813 121.268 38.0351 121.275 36.4V35.6329ZM134.123 43.8552H130.882V28.1237H134.123V43.8552ZM153.692 43.8552H150.451L144.141 33.5044V43.8552H140.9V28.1237H144.141L150.462 38.4961V28.1237H153.692V43.8552ZM171.802 30.7492H166.983V43.8552H163.742V30.7492H158.988V28.1237H171.802V30.7492ZM186.887 37.0375H180.664V41.2513H187.968V43.8552H177.422V28.1237H187.946V30.7492H180.664V34.4984H186.887V37.0375ZM196.872 41.2513H203.755V43.8552H193.631V28.1237H196.872V41.2513ZM218.851 37.0375H212.627V41.2513H219.931V43.8552H209.386V28.1237H219.91V30.7492H212.627V34.4984H218.851V37.0375ZM238.041 41.8672C237.458 42.5658 236.633 43.1097 235.567 43.4986C234.501 43.8804 233.32 44.0713 232.023 44.0713C230.662 44.0713 229.466 43.776 228.436 43.1853C227.413 42.5875 226.621 41.7231 226.059 40.5922C225.504 39.4613 225.22 38.1324 225.205 36.6053V35.5357C225.205 33.9654 225.468 32.6076 225.994 31.4623C226.527 30.3099 227.291 29.4311 228.285 28.826C229.286 28.2138 230.457 27.9076 231.796 27.9076C233.662 27.9076 235.12 28.3542 236.172 29.2474C237.224 30.1334 237.847 31.4263 238.041 33.1262H234.886C234.742 32.2259 234.422 31.5668 233.925 31.149C233.435 30.7312 232.758 30.5223 231.894 30.5223C230.791 30.5223 229.952 30.9365 229.376 31.7649C228.8 32.5932 228.508 33.8249 228.501 35.46V36.4649C228.501 38.1144 228.814 39.3605 229.441 40.2032C230.068 41.046 230.986 41.4674 232.196 41.4674C233.413 41.4674 234.281 41.2081 234.8 40.6895V37.9775H231.85V35.5897H238.041V41.8672ZM250.263 38.0964H247.681V43.8552H244.439V28.1237H250.285C252.143 28.1237 253.576 28.5379 254.585 29.3663C255.593 30.1946 256.097 31.3651 256.097 32.8777C256.097 33.951 255.863 34.8478 255.395 35.5681C254.934 36.2812 254.232 36.8502 253.288 37.2752L256.692 43.7039V43.8552H253.213L250.263 38.0964ZM247.681 35.4708H250.295C251.109 35.4708 251.74 35.2656 252.186 34.855C252.633 34.4372 252.856 33.8646 252.856 33.1371C252.856 32.3951 252.644 31.8117 252.219 31.3867C251.801 30.9617 251.156 30.7492 250.285 30.7492H247.681V35.4708ZM271.215 40.6138H265.532L264.451 43.8552H261.004L266.861 28.1237H269.864L275.753 43.8552H272.306L271.215 40.6138ZM266.407 37.9883H270.34L268.362 32.0998L266.407 37.9883ZM284.225 38.3124V43.8552H280.984V28.1237H287.121C288.302 28.1237 289.339 28.3398 290.233 28.772C291.133 29.2042 291.824 29.82 292.307 30.6196C292.79 31.4119 293.031 32.3159 293.031 33.3315C293.031 34.873 292.502 36.0903 291.443 36.9835C290.391 37.8695 288.932 38.3124 287.067 38.3124H284.225ZM284.225 35.6869H287.121C287.978 35.6869 288.63 35.4852 289.077 35.0819C289.53 34.6785 289.757 34.1023 289.757 33.3531C289.757 32.5824 289.53 31.9594 289.077 31.484C288.623 31.0086 287.996 30.7636 287.197 30.7492H284.225V35.6869ZM311.833 43.8552H308.591V37.1131H302.271V43.8552H299.029V28.1237H302.271V34.4984H308.591V28.1237H311.833V43.8552Z" fill="#82B0DB"/>
<path d="M102.648 57.2376H98.4068V69H96.6759V57.2376H92.444V55.8059H102.648V57.2376ZM105.648 60.3821C106.391 59.4699 107.357 59.0138 108.547 59.0138C110.62 59.0138 111.665 60.1828 111.683 62.5207V69H110.006V62.5117C110 61.8048 109.837 61.2823 109.517 60.944C109.203 60.6057 108.711 60.4365 108.04 60.4365C107.496 60.4365 107.019 60.5815 106.608 60.8715C106.197 61.1615 105.877 61.5421 105.648 62.0133V69H103.971V55.0809H105.648V60.3821ZM117.891 69.1812C116.562 69.1812 115.48 68.7463 114.646 67.8763C113.813 67.0003 113.396 65.8314 113.396 64.3694V64.0613C113.396 63.0886 113.58 62.2217 113.949 61.4605C114.323 60.6933 114.843 60.0952 115.507 59.6662C116.178 59.2313 116.903 59.0138 117.682 59.0138C118.957 59.0138 119.948 59.4337 120.654 60.2734C121.361 61.1131 121.715 62.3153 121.715 63.88V64.5778H115.072C115.096 65.5444 115.377 66.3267 115.915 66.9248C116.459 67.5169 117.148 67.8129 117.981 67.8129C118.573 67.8129 119.075 67.6921 119.485 67.4504C119.896 67.2088 120.256 66.8886 120.564 66.4899L121.588 67.2873C120.766 68.5499 119.534 69.1812 117.891 69.1812ZM117.682 60.3912C117.006 60.3912 116.438 60.6389 115.979 61.1343C115.519 61.6236 115.235 62.3123 115.127 63.2004H120.038V63.0735C119.99 62.2217 119.76 61.5632 119.35 61.098C118.939 60.6268 118.383 60.3912 117.682 60.3912ZM128.349 69V60.4909H126.799V59.195H128.349V58.1891C128.349 57.138 128.63 56.3254 129.192 55.7515C129.753 55.1776 130.548 54.8906 131.575 54.8906C131.961 54.8906 132.345 54.942 132.726 55.0447L132.635 56.404C132.351 56.3496 132.049 56.3224 131.729 56.3224C131.185 56.3224 130.765 56.4825 130.469 56.8027C130.173 57.1168 130.025 57.5699 130.025 58.162V59.195H132.118V60.4909H130.025V69H128.349ZM139.658 68.0304C139.006 68.7976 138.048 69.1812 136.786 69.1812C135.741 69.1812 134.943 68.8792 134.393 68.275C133.85 67.6649 133.575 66.7647 133.569 65.5746V59.195H135.245V65.5293C135.245 67.0154 135.849 67.7585 137.058 67.7585C138.338 67.7585 139.19 67.2813 139.613 66.3267V59.195H141.29V69H139.695L139.658 68.0304ZM145.748 56.8208V59.195H147.579V60.4909H145.748V66.5714C145.748 66.9641 145.83 67.2601 145.993 67.4595C146.156 67.6528 146.434 67.7495 146.827 67.7495C147.02 67.7495 147.286 67.7132 147.624 67.6407V69C147.183 69.1208 146.754 69.1812 146.337 69.1812C145.588 69.1812 145.023 68.9547 144.643 68.5016C144.262 68.0485 144.072 67.4051 144.072 66.5714V60.4909H142.287V59.195H144.072V56.8208H145.748ZM155.227 68.0304C154.575 68.7976 153.617 69.1812 152.355 69.1812C151.31 69.1812 150.512 68.8792 149.962 68.275C149.419 67.6649 149.144 66.7647 149.138 65.5746V59.195H150.814V65.5293C150.814 67.0154 151.418 67.7585 152.627 67.7585C153.907 67.7585 154.759 67.2813 155.182 66.3267V59.195H156.859V69H155.264L155.227 68.0304ZM163.782 60.6993C163.529 60.657 163.254 60.6359 162.958 60.6359C161.858 60.6359 161.112 61.1041 160.719 62.0405V69H159.043V59.195H160.674L160.701 60.3278C161.251 59.4518 162.03 59.0138 163.039 59.0138C163.365 59.0138 163.613 59.0561 163.782 59.1406V60.6993ZM168.848 69.1812C167.519 69.1812 166.438 68.7463 165.604 67.8763C164.77 67.0003 164.353 65.8314 164.353 64.3694V64.0613C164.353 63.0886 164.538 62.2217 164.906 61.4605C165.281 60.6933 165.8 60.0952 166.465 59.6662C167.136 59.2313 167.86 59.0138 168.64 59.0138C169.914 59.0138 170.905 59.4337 171.612 60.2734C172.319 61.1131 172.672 62.3153 172.672 63.88V64.5778H166.03C166.054 65.5444 166.335 66.3267 166.873 66.9248C167.416 67.5169 168.105 67.8129 168.939 67.8129C169.531 67.8129 170.032 67.6921 170.443 67.4504C170.854 67.2088 171.213 66.8886 171.521 66.4899L172.545 67.2873C171.724 68.5499 170.491 69.1812 168.848 69.1812ZM168.64 60.3912C167.963 60.3912 167.395 60.6389 166.936 61.1343C166.477 61.6236 166.193 62.3123 166.084 63.2004H170.996V63.0735C170.948 62.2217 170.718 61.5632 170.307 61.098C169.896 60.6268 169.341 60.3912 168.64 60.3912ZM178.038 64.0069C178.038 63.0463 178.225 62.1824 178.6 61.4152C178.98 60.6479 179.506 60.0559 180.176 59.6391C180.853 59.2222 181.623 59.0138 182.487 59.0138C183.822 59.0138 184.901 59.4759 185.722 60.4003C186.55 61.3246 186.964 62.554 186.964 64.0884V64.2063C186.964 65.1608 186.779 66.0186 186.411 66.7798C186.048 67.535 185.526 68.124 184.843 68.5469C184.167 68.9698 183.387 69.1812 182.505 69.1812C181.176 69.1812 180.098 68.7191 179.27 67.7948C178.449 66.8705 178.038 65.6471 178.038 64.1247V64.0069ZM179.723 64.2063C179.723 65.2937 179.974 66.1666 180.475 66.8251C180.983 67.4836 181.659 67.8129 182.505 67.8129C183.357 67.8129 184.034 67.4806 184.535 66.8161C185.037 66.1455 185.287 65.2091 185.287 64.0069C185.287 62.9315 185.03 62.0616 184.517 61.3971C184.009 60.7265 183.333 60.3912 182.487 60.3912C181.659 60.3912 180.992 60.7204 180.484 61.3789C179.977 62.0374 179.723 62.9799 179.723 64.2063ZM189.519 69V60.4909H187.97V59.195H189.519V58.1891C189.519 57.138 189.8 56.3254 190.362 55.7515C190.924 55.1776 191.719 54.8906 192.746 54.8906C193.132 54.8906 193.516 54.942 193.896 55.0447L193.806 56.404C193.522 56.3496 193.22 56.3224 192.9 56.3224C192.356 56.3224 191.936 56.4825 191.64 56.8027C191.344 57.1168 191.196 57.5699 191.196 58.162V59.195H193.289V60.4909H191.196V69H189.519ZM200.585 59.195L200.63 60.2824C201.349 59.4367 202.319 59.0138 203.539 59.0138C204.91 59.0138 205.844 59.5394 206.339 60.5906C206.665 60.1193 207.088 59.7387 207.608 59.4488C208.133 59.1588 208.753 59.0138 209.465 59.0138C211.616 59.0138 212.71 60.1526 212.746 62.4301V69H211.069V62.5298C211.069 61.829 210.909 61.3064 210.589 60.9621C210.269 60.6117 209.731 60.4365 208.976 60.4365C208.354 60.4365 207.837 60.6238 207.427 60.9983C207.016 61.3669 206.777 61.8653 206.711 62.4936V69H205.025V62.5751C205.025 61.1494 204.327 60.4365 202.932 60.4365C201.832 60.4365 201.08 60.9047 200.675 61.8411V69H198.999V59.195H200.585ZM214.468 64.0069C214.468 63.0463 214.655 62.1824 215.03 61.4152C215.41 60.6479 215.936 60.0559 216.607 59.6391C217.283 59.2222 218.053 59.0138 218.917 59.0138C220.253 59.0138 221.331 59.4759 222.152 60.4003C222.98 61.3246 223.394 62.554 223.394 64.0884V64.2063C223.394 65.1608 223.21 66.0186 222.841 66.7798C222.479 67.535 221.956 68.124 221.273 68.5469C220.597 68.9698 219.818 69.1812 218.936 69.1812C217.606 69.1812 216.528 68.7191 215.7 67.7948C214.879 66.8705 214.468 65.6471 214.468 64.1247V64.0069ZM216.154 64.2063C216.154 65.2937 216.404 66.1666 216.906 66.8251C217.413 67.4836 218.09 67.8129 218.936 67.8129C219.787 67.8129 220.464 67.4806 220.965 66.8161C221.467 66.1455 221.718 65.2091 221.718 64.0069C221.718 62.9315 221.461 62.0616 220.947 61.3971C220.44 60.7265 219.763 60.3912 218.917 60.3912C218.09 60.3912 217.422 60.7204 216.915 61.3789C216.407 62.0374 216.154 62.9799 216.154 64.2063ZM226.711 59.195L226.765 60.4274C227.514 59.485 228.493 59.0138 229.701 59.0138C231.774 59.0138 232.819 60.1828 232.837 62.5207V69H231.16V62.5117C231.154 61.8048 230.991 61.2823 230.671 60.944C230.357 60.6057 229.865 60.4365 229.194 60.4365C228.65 60.4365 228.173 60.5815 227.762 60.8715C227.351 61.1615 227.031 61.5421 226.802 62.0133V69H225.125V59.195H226.711ZM239.063 69.1812C237.734 69.1812 236.652 68.7463 235.819 67.8763C234.985 67.0003 234.568 65.8314 234.568 64.3694V64.0613C234.568 63.0886 234.752 62.2217 235.121 61.4605C235.495 60.6933 236.015 60.0952 236.679 59.6662C237.35 59.2313 238.075 59.0138 238.854 59.0138C240.129 59.0138 241.12 59.4337 241.827 60.2734C242.533 61.1131 242.887 62.3153 242.887 63.88V64.5778H236.244C236.269 65.5444 236.55 66.3267 237.087 66.9248C237.631 67.5169 238.32 67.8129 239.153 67.8129C239.745 67.8129 240.247 67.6921 240.658 67.4504C241.068 67.2088 241.428 66.8886 241.736 66.4899L242.76 67.2873C241.938 68.5499 240.706 69.1812 239.063 69.1812ZM238.854 60.3912C238.178 60.3912 237.61 60.6389 237.151 61.1343C236.692 61.6236 236.408 62.3123 236.299 63.2004H241.21V63.0735C241.162 62.2217 240.933 61.5632 240.522 61.098C240.111 60.6268 239.555 60.3912 238.854 60.3912ZM247.545 66.5442L249.829 59.195H251.623L247.681 70.5133C247.071 72.1445 246.101 72.9601 244.772 72.9601L244.455 72.9329L243.83 72.8151V71.4558L244.283 71.492C244.851 71.492 245.292 71.3772 245.606 71.1477C245.926 70.9181 246.189 70.4982 246.394 69.8881L246.766 68.8913L243.268 59.195H245.098L247.545 66.5442Z" fill="#82B0DB"/>
</svg>
