<svg width="331" height="94" viewBox="0 0 331 94" fill="none" xmlns="http://www.w3.org/2000/svg">
<g clip-path="url(#clip0_545:79)">
<rect width="331" height="94" fill="white"/>
<path d="M65.1503 45.4049C65.1503 46.681 66.1472 47.6779 67.4233 47.6779C68.6994 47.6779 69.6963 46.681 69.6963 45.4049C69.6963 44.1288 68.6994 43.1319 67.4233 43.1319C66.1472 43.1718 65.1503 44.1687 65.1503 45.4049ZM84.2116 43.1718C82.9355 43.1718 81.9386 44.1687 81.9386 45.4448C81.9386 46.7209 82.9355 47.7178 84.2116 47.7178C85.4877 47.7178 86.4846 46.7209 86.4846 45.4448C86.4846 44.1687 85.4877 43.1718 84.2116 43.1718ZM84.2116 60.2393C82.9355 60.2393 81.9386 61.2362 81.9386 62.5123C81.9386 63.7883 82.9355 64.7853 84.2116 64.7853C85.4877 64.7853 86.4846 63.7883 86.4846 62.5123C86.4846 61.2362 85.4877 60.2393 84.2116 60.2393Z" fill="#BAD3EA"/>
<path d="M89.0368 24.3896C86.7638 21.5583 82.6963 21.4387 80.3037 23.6718L80.0245 23.9509L79.4663 24.3896C77.1932 26.2239 73.8037 26.0644 71.6902 23.9509V23.7914C70.9724 23.0736 70.0153 22.5153 69.0184 22.2362C68.8589 22.2362 68.5798 22.0767 68.4601 22.0767H66.1871C66.0276 22.0767 65.908 22.0767 65.7485 22.2362H65.4693C65.3098 22.2362 65.1902 22.3957 65.0307 22.3957C65.0307 22.3957 64.8712 22.3957 64.8712 22.5552C64.7117 22.5552 64.592 22.7147 64.4325 22.7147C64.4325 22.7147 64.273 22.7147 64.273 22.8742C64.1135 23.0337 63.9939 23.0338 63.8344 23.1534C63.8344 23.1534 63.6748 23.1534 63.6748 23.3129C63.5153 23.4724 63.3957 23.4724 63.2362 23.592L63.0767 23.7515L62.7975 24.0307L62.2393 24.4693C59.9663 26.3037 56.5767 26.1442 54.6227 24.0307C54.6227 24.0307 54.4632 24.0307 54.4632 23.8712L54.184 23.592C53.3466 22.8742 52.3497 22.3159 51.2331 22.1963H48.681C48.681 22.3558 48.5215 22.3558 48.4018 22.4755H48.362C47.6442 22.7546 46.9663 23.0337 46.3681 23.592L46.2086 23.7515L45.7699 24.1902C45.2117 24.7485 44.9325 25.4663 44.6534 26.0245C44.6534 26.1841 44.4939 26.3037 44.4939 26.4632C44.4939 26.6227 44.3344 26.7423 44.3344 27.0215C44.1748 28.0184 44.1748 29.0153 44.4939 29.9724C44.4939 30.1319 44.6534 30.2515 44.6534 30.411V30.5706C44.6534 30.7301 44.8129 30.8497 44.8129 31.0092C44.9724 31.1687 44.9724 31.2883 45.092 31.5675C45.3712 31.727 45.6503 32.0061 45.8098 32.1258L46.089 32.4049L46.3681 32.6841C48.4816 34.7976 48.4816 38.4663 46.2086 40.7393C45.9294 41.0184 45.4908 41.4571 45.3712 41.7362C45.2117 41.8957 45.2117 42.0153 45.092 42.2945V42.454C44.9325 42.6135 44.9325 42.7331 44.8129 42.8927V43.0522C44.8129 43.2117 44.6534 43.3313 44.6534 43.4908V43.6503C44.6534 43.8098 44.6534 43.9295 44.4939 44.089V46.2025C44.4939 46.362 44.4939 46.4816 44.6534 46.6411V46.8006C44.9325 47.7976 45.4908 48.7945 46.3282 49.6319C48.6012 51.9049 48.6012 55.5736 46.3282 57.8068L46.1687 57.9663L45.8896 58.2454V58.4049C45.7301 58.5644 45.6104 58.6841 45.6104 58.8436C45.6104 58.8436 45.6104 59.0031 45.4509 59.0031C45.2914 59.1626 45.2914 59.2822 45.1718 59.4417L45.0123 59.6012C45.0123 59.7607 44.8528 59.7607 44.8528 59.8804C44.8528 60 44.6933 60.0399 44.6933 60.1595C44.6933 60.319 44.6933 60.319 44.5337 60.4387C44.2546 60.9969 44.0951 61.7147 44.0951 62.273V63.3896C44.2546 63.8282 44.2546 64.227 44.5337 64.5061C44.5337 64.6657 44.6933 64.7853 44.6933 64.7853C44.6933 64.7853 44.6933 64.9448 44.8528 64.9448C44.8528 65.1043 45.0123 65.2239 45.0123 65.3834C45.0123 65.3834 45.0123 65.543 45.1718 65.543C45.3313 65.8221 45.4509 65.9816 45.6104 66.1012C45.6104 66.1012 45.6104 66.2607 45.7699 66.2607C45.7699 66.2607 45.7699 66.4203 45.9294 66.4203C45.9294 66.5798 46.089 66.5798 46.089 66.5798L46.2485 66.7393C46.408 66.8988 46.5276 66.8988 46.5276 67.0184L46.6871 67.1779C46.6871 67.1779 46.8466 67.1779 46.8466 67.3374C47.0061 67.4969 47.1258 67.6166 47.2853 67.6166C47.2853 67.6166 47.4448 67.6166 47.4448 67.7761C47.6043 67.9356 47.7239 67.9356 47.8834 68.0552H47.9632C48.1227 68.2147 48.2423 68.2147 48.5215 68.2147C48.681 68.2147 48.9601 68.3742 49.0798 68.3742H49.2393C49.3988 68.3742 49.5184 68.3742 49.6779 68.5338H50.954C51.3926 68.5338 51.6718 68.3742 52.0706 68.3742H52.2301C52.3896 68.3742 52.5092 68.2147 52.6687 68.2147H52.7485C52.908 68.2147 53.0276 68.0552 53.1871 68.0552H53.3466C53.6258 67.8957 54.0644 67.6166 54.3436 67.4969L54.7822 67.0583L54.9417 66.8988C57.2147 64.5061 60.8834 64.5061 63.1166 66.8988C65.6687 69.5706 69.8957 69.4509 72.2883 66.4601C73.9632 64.3466 73.9632 61.2362 72.2883 58.9632C70.0153 56.1319 65.9479 56.0123 63.5552 58.2454L63.2761 58.5245L62.7178 58.9632C60.4448 60.7976 57.0552 60.638 54.9417 58.5245L54.6626 58.2454L54.2239 57.6871C52.3896 55.4141 52.5491 52.0245 54.6626 49.911C55.9387 48.7945 56.4969 47.2393 56.4969 45.6841V45.2454C56.4969 43.8497 55.9387 42.4141 54.8221 41.4172C54.8221 41.2577 54.6626 41.2577 54.6626 41.138L54.2239 40.5798C52.3896 38.3068 52.5491 34.9172 54.6626 32.8037L54.8221 32.6442L54.9816 32.4847C57.2546 30.092 60.9233 30.092 63.1564 32.4847L63.316 32.6442L63.4755 32.8037L63.7546 33.0828C63.9141 33.0828 63.9141 33.2423 64.0337 33.2423C64.1534 33.2423 64.1933 33.4018 64.3129 33.4018C64.4325 33.4018 64.4724 33.5614 64.592 33.5614C64.7117 33.5614 64.7515 33.7209 64.8712 33.7209C64.9908 33.7209 65.0307 33.8804 65.1503 33.8804C65.2699 33.8804 65.3098 34.0399 65.4294 34.0399C65.5491 34.0399 65.589 34.0399 65.7086 34.1994C65.8681 34.1994 65.8681 34.1994 65.9877 34.3589H68.3804C68.5399 34.3589 68.6595 34.3589 68.819 34.1994H69.0982C69.2577 34.1994 69.3773 34.0399 69.5368 34.0399H69.6963C69.8558 34.0399 69.9755 33.8804 70.2546 33.7607C70.8129 33.4816 71.3712 33.043 71.8098 32.6442L71.9693 32.4847C74.2423 30.092 77.911 30.092 80.1442 32.4847C82.5368 35.316 86.9233 35.1564 89.1963 32.2055C90.7117 29.6135 90.7117 26.5031 89.0368 24.3896Z" fill="#BAD3EA"/>
<path d="M121.218 41.8957C120.38 41.0583 119.663 40.5 118.666 40.0614C117.828 39.6227 116.831 39.3436 115.555 39.3436C114.439 39.3436 113.282 39.6227 112.445 40.0614C111.607 40.5 110.89 41.0583 110.331 41.8957C109.773 42.6135 109.334 43.4509 109.055 44.4479C108.776 45.4448 108.617 46.4417 108.617 47.3988C108.617 48.3558 108.776 49.3927 109.175 50.3497C109.454 51.3466 110.012 52.0246 110.571 52.7424C111.129 53.4601 111.966 54.0184 112.844 54.4172C113.681 54.8559 114.678 54.9755 115.794 54.9755C117.071 54.9755 118.067 54.6963 118.905 54.2577C119.742 53.819 120.58 53.2608 121.298 52.4233L124.248 55.5338C123.132 56.8098 121.856 57.6473 120.42 58.2055C119.025 58.7638 117.469 59.043 115.755 59.043C114.08 59.043 112.365 58.7638 110.969 58.2055C109.574 57.6473 108.298 56.8098 107.301 55.8129C106.304 54.816 105.466 53.5399 104.908 52.1442C104.35 50.7485 104.071 49.0338 104.071 47.3589C104.071 45.6841 104.35 43.9693 104.908 42.5736C105.466 41.1779 106.304 39.9019 107.301 38.7454C108.298 37.7485 109.574 36.9111 110.969 36.3528C112.365 35.7945 114.08 35.5154 115.755 35.5154C117.429 35.5154 118.985 35.7945 120.42 36.3528C121.975 36.9111 123.252 37.908 124.368 39.0246L121.218 41.8957ZM130.788 47.1196C130.788 48.2362 130.948 49.3927 131.347 50.2301C131.626 51.227 132.184 52.0644 132.742 52.7822C133.301 53.5 134.138 54.0583 135.015 54.3374C135.853 54.7761 137.009 54.8957 138.126 54.8957C139.242 54.8957 140.239 54.7362 141.236 54.3374C142.074 53.8988 142.911 53.3405 143.509 52.7822C144.067 52.0644 144.626 51.227 144.905 50.2301C145.184 49.2332 145.463 48.2362 145.463 47.1196C145.463 46.0031 145.304 44.8466 144.905 44.0092C144.626 43.0123 144.067 42.1749 143.509 41.4571C142.951 40.7393 142.114 40.181 141.236 39.9019C140.399 39.4632 139.242 39.3436 138.126 39.3436C137.009 39.3436 136.012 39.5031 135.015 39.9019C134.178 40.3405 133.341 40.8988 132.742 41.4571C132.184 42.1749 131.626 43.0123 131.347 44.0092C131.067 45.0062 130.788 46.0031 130.788 47.1196ZM126.282 47.1196C126.282 45.4448 126.561 43.8896 127.12 42.454C127.678 41.0583 128.515 39.7822 129.672 38.6258C130.788 37.5092 131.945 36.6319 133.5 36.0736C134.896 35.5154 136.451 35.0767 138.166 35.0767C139.88 35.0767 141.396 35.3559 142.831 36.0736C144.227 36.6319 145.503 37.4693 146.66 38.6258C147.776 39.7424 148.494 41.0184 149.212 42.454C149.77 43.8497 150.049 45.4049 150.049 47.1196C150.049 48.7945 149.77 50.3497 149.212 51.7853C148.653 53.181 147.816 54.4571 146.66 55.6135C145.543 56.7301 144.387 57.4479 142.831 58.1657C141.436 58.7239 139.88 59.1626 138.166 59.1626C136.491 59.1626 134.936 58.8835 133.5 58.1657C132.104 57.6074 130.828 56.77 129.672 55.6135C128.555 54.497 127.837 53.3405 127.12 51.7853C126.721 50.3497 126.282 48.7945 126.282 47.1196ZM154.396 58.5644H158.623V35.9939H154.396V58.5644ZM153.399 27.7792C153.399 26.9417 153.678 26.2239 154.236 25.5062C154.794 24.9479 155.512 24.5092 156.35 24.5092C157.187 24.5092 157.905 24.7884 158.463 25.5062C159.021 26.0644 159.301 26.9019 159.301 27.7792C159.301 28.6565 159.021 29.3344 158.463 30.0522C157.905 30.6105 157.187 31.0491 156.35 31.0491C155.512 31.0491 154.794 30.77 154.236 30.0522C153.678 29.454 153.399 28.6166 153.399 27.7792ZM164.525 35.954H168.791V39.4632H168.951C169.509 38.1871 170.347 37.1902 171.782 36.5123C173.058 35.7945 174.614 35.3957 176.448 35.3957C177.564 35.3957 178.561 35.5552 179.558 35.954C180.555 36.2331 181.393 36.7914 182.11 37.5092C182.828 38.227 183.387 39.0644 183.945 40.181C184.383 41.2976 184.663 42.5736 184.663 44.1289V58.6841H180.356V45.2853C180.356 44.2884 180.196 43.2914 179.917 42.6135C179.638 41.8957 179.199 41.2178 178.801 40.7792C178.362 40.3405 177.804 39.9417 177.126 39.7822C176.567 39.6227 175.85 39.5031 175.132 39.5031C174.294 39.5031 173.457 39.6626 172.739 39.9417C172.021 40.2209 171.344 40.6595 170.745 41.3374C170.187 41.8957 169.748 42.7331 169.469 43.7301C169.19 44.727 169.031 45.8436 169.031 47.1196V58.8436H164.804V35.9939L164.525 35.954ZM200.255 55.0154C201.371 55.0154 202.368 54.8559 203.365 54.4571C204.362 54.0184 205.04 53.4601 205.758 52.7822C206.316 52.0644 206.874 51.227 207.153 50.2301C207.433 49.2332 207.712 48.2362 207.712 47C207.712 45.8835 207.552 44.727 207.153 43.77C206.874 42.773 206.316 41.9356 205.758 41.2178C205.04 40.5 204.362 39.9417 203.365 39.543C202.368 39.1043 201.371 38.9847 200.255 38.9847C199.138 38.9847 198.141 39.1442 197.144 39.543C196.147 39.9816 195.469 40.5399 194.752 41.2178C194.193 41.9356 193.635 42.773 193.356 43.77C193.077 44.7669 192.798 45.7638 192.798 47C192.798 48.1166 192.957 49.273 193.356 50.2301C193.635 51.227 194.193 52.0644 194.752 52.7822C195.31 53.5 196.147 54.0583 197.144 54.4571C197.982 54.7362 199.138 55.0154 200.255 55.0154ZM211.979 58.4049H207.752V55.1749H207.592C206.755 56.4509 205.598 57.2884 204.202 58.0062C202.807 58.724 201.252 59.0031 199.696 59.0031C198.021 59.0031 196.307 58.7239 194.911 58.1657C193.515 57.6074 192.239 56.77 191.242 55.6135C190.245 54.497 189.408 53.2209 188.969 51.7853C188.411 50.3896 188.132 48.8344 188.132 47.1196C188.132 45.4049 188.411 43.8896 188.969 42.3344C189.528 40.9387 190.245 39.6626 191.242 38.5062C192.239 37.3896 193.515 36.5123 194.911 35.954C196.307 35.3957 197.862 35.1166 199.696 35.1166C201.252 35.1166 202.807 35.3957 204.202 36.1135C205.598 36.8313 206.755 37.7884 207.433 38.9448H207.592V21.9969H211.819V58.4049H211.979ZM233.552 45.2853C233.552 44.2884 233.393 43.4509 233.114 42.6135C232.834 41.7761 232.396 41.0583 231.837 40.5C231.279 39.9417 230.561 39.5031 229.844 39.1043C229.006 38.8252 228.169 38.546 227.012 38.546C226.015 38.546 225.018 38.7055 224.181 39.1043C223.344 39.543 222.626 39.9417 221.908 40.6595C221.35 41.2178 220.791 41.9356 220.512 42.773C220.233 43.6104 219.954 44.3282 219.954 45.046H233.512L233.552 45.2853ZM220.034 48.7945C220.034 49.7914 220.313 50.6289 220.752 51.4663C221.19 52.3037 221.748 53.0215 222.426 53.5798C223.144 54.1381 223.982 54.5767 224.819 54.8559C225.816 55.135 226.653 55.2945 227.65 55.2945C228.926 55.2945 230.202 55.0154 231.16 54.2976C232.156 53.7393 232.994 52.9019 233.831 51.9049L237.061 54.4571C234.669 57.5675 231.279 59.1227 227.052 59.1227C225.218 59.1227 223.663 58.8436 222.267 58.2853C220.871 57.727 219.595 56.8896 218.598 55.7331C217.601 54.6166 216.764 53.4601 216.325 51.9049C215.767 50.5092 215.488 48.954 215.488 47.2393C215.488 45.5644 215.767 44.0092 216.325 42.5736C216.883 41.1779 217.721 39.9019 218.718 38.7454C219.715 37.6289 220.991 36.9111 222.387 36.1933C223.782 35.635 225.337 35.3558 227.052 35.3558C229.046 35.3558 230.721 35.635 232.117 36.3528C233.512 37.0706 234.669 37.908 235.506 39.0246C236.344 40.1411 237.061 41.4172 237.5 42.8528C237.939 44.2485 238.058 45.6841 238.058 47.2393V48.7945H220.034V48.7945ZM254.727 41.6166C254.169 41.0583 253.61 40.5 252.893 40.0614C252.175 39.6227 251.218 39.3436 250.221 39.3436C249.224 39.3436 248.387 39.6227 247.549 40.0614C246.831 40.5 246.433 41.0583 246.433 41.8957C246.433 42.6135 246.712 43.1718 247.15 43.4509C247.589 43.8896 248.147 44.1687 248.706 44.4479C249.264 44.727 249.982 44.8865 250.54 45.0062C251.258 45.1657 251.816 45.2853 252.215 45.2853C253.052 45.5644 254.049 45.7239 254.767 46.1227C255.604 46.4019 256.322 46.8405 256.88 47.3988C257.439 47.9571 257.877 48.5154 258.276 49.2332C258.555 49.9509 258.834 50.7884 258.834 51.9049C258.834 53.181 258.555 54.2976 257.997 55.135C257.439 55.9724 256.721 56.8098 255.883 57.408C255.046 58.0062 254.049 58.4049 252.933 58.6841C251.816 58.9632 250.66 59.1227 249.702 59.1227C247.868 59.1227 246.193 58.8436 244.758 58.2853C243.362 57.727 242.086 56.7301 240.929 55.1749L244.16 52.5031C244.877 53.2209 245.555 53.7792 246.433 54.3374C247.31 54.8957 248.267 55.1749 249.543 55.1749C250.101 55.1749 250.66 55.1749 251.218 55.0154C251.776 54.8559 252.215 54.7362 252.614 54.4571C253.052 54.1779 253.331 53.8988 253.61 53.6197C253.89 53.181 254.049 52.7822 254.049 52.3436C254.049 51.7853 253.89 51.227 253.491 50.7884C253.052 50.3497 252.653 50.0706 252.095 49.7914C251.537 49.5123 250.979 49.3528 250.42 49.2332L248.745 48.7945C247.908 48.5154 246.911 48.3559 246.193 48.0767C245.356 47.7976 244.638 47.3589 244.08 46.9601C243.521 46.5215 242.963 45.8436 242.525 45.1258C242.086 44.408 241.966 43.4509 241.966 42.454C241.966 41.3374 242.245 40.181 242.684 39.3436C243.123 38.5062 243.801 37.7884 244.678 37.2301C245.515 36.6718 246.353 36.2331 247.35 35.954C248.347 35.6749 249.463 35.5154 250.46 35.5154C252.015 35.5154 253.411 35.7945 254.847 36.3528C256.242 36.9111 257.399 37.908 258.236 39.1841L254.727 41.6166ZM262.942 22.5552H267.169V45.4049L276.779 35.7945H282.561L272.273 45.9632L283.558 58.0859H277.497L267.209 46.5215V58.0859H262.982V22.5552" fill="#82B0DB"/>
</g>
<defs>
<clipPath id="clip0_545:79">
<rect width="331" height="94" fill="white"/>
</clipPath>
</defs>
</svg>
