<svg width="331" height="94" viewBox="0 0 331 94" fill="none" xmlns="http://www.w3.org/2000/svg">
<rect width="331" height="94" fill="white"/>
<path d="M187.046 34.3921C183.797 34.3921 181.244 35.0892 178.69 36.4808C178.69 29.0522 178.69 22.3207 178.923 20L163.368 22.7846V24.1775L164.992 24.4095C167.08 24.8733 167.78 26.033 168.24 28.8202C168.707 34.3921 168.473 64.1079 168.24 68.9839C172.418 69.913 176.831 70.6102 181.243 70.6102C193.547 70.6102 200.976 62.9483 200.976 50.8756C200.976 41.3582 194.94 34.3921 187.046 34.3921V34.3921ZM181.707 68.0549C180.777 68.0549 179.615 68.0549 178.921 67.8243C178.687 64.5745 178.457 50.8756 178.687 38.8042C180.08 38.339 181.008 38.107 182.17 38.107C187.281 38.107 190.067 44.1427 190.067 51.57C190.066 60.8595 186.583 68.0549 181.707 68.0549V68.0549ZM104.861 20.9277H64V23.0165L66.322 23.2484C69.3385 23.7123 70.5009 25.5691 70.9634 29.9799C71.6619 38.3376 71.4286 53.4295 70.9634 60.6235C70.4996 65.0357 69.3399 67.1258 66.322 67.355L64 67.8216V69.6784H90.2342V67.8216L87.4483 67.355C84.4304 67.1244 83.2694 65.0357 82.8055 60.6235C82.5723 57.6044 82.3403 52.7284 82.3403 46.694L87.9121 46.926C91.3952 46.926 93.0187 49.7119 93.7159 53.6574H95.806V37.1793H93.7159C93.0174 41.1262 91.3952 43.9108 87.9121 43.9108L82.3417 44.1441C82.3417 36.2502 82.5736 28.8216 82.8069 24.4108H90.9313C97.2016 24.4108 100.451 28.3564 102.772 35.3225L105.094 34.6253L104.861 20.9277V20.9277Z" fill="#82B0DB"/>
<path d="M118.095 33.9282C129.703 33.9282 135.507 41.822 135.507 52.2685C135.507 62.2511 129.006 70.6115 117.397 70.6115C105.79 70.6115 99.9861 62.7163 99.9861 52.2685C99.9861 42.2859 106.486 33.9282 118.095 33.9282V33.9282ZM117.397 36.2502C112.289 36.2502 110.896 43.215 110.896 52.2685C110.896 61.0901 113.219 68.2868 117.863 68.2868C123.198 68.2868 124.594 61.322 124.594 52.2685C124.594 43.4469 122.275 36.2502 117.397 36.2502ZM203.992 52.5018C203.992 42.9831 210.028 33.9282 221.869 33.9282C231.617 33.9282 236.262 41.1262 236.262 50.6436H214.671C214.438 59.2333 218.616 65.5022 226.975 65.5022C230.69 65.5022 232.547 64.5758 234.871 62.9496L235.797 64.1093C233.475 67.3591 228.368 70.6115 221.869 70.6115C211.421 70.6102 203.992 63.1815 203.992 52.5018V52.5018ZM214.671 48.091L225.582 47.8577C225.582 43.215 224.885 36.2502 220.94 36.2502C216.994 36.2502 214.901 42.7498 214.671 48.091V48.091ZM263.893 35.7864C261.107 34.624 257.394 33.9282 253.215 33.9282C244.627 33.9282 239.284 39.0348 239.284 45.0718C239.284 51.1088 243.227 53.6615 248.806 55.5196C254.608 57.6071 256.234 59.2333 256.234 62.0192C256.234 64.8051 254.144 67.3577 250.429 67.3577C246.02 67.3577 242.767 64.8051 240.215 57.839L238.588 58.3055L238.822 68.5201C241.607 69.6798 246.714 70.6102 251.126 70.6102C260.181 70.6102 265.986 65.9648 265.986 58.7694C265.986 53.8934 263.431 51.1088 257.395 48.7855C250.893 46.2328 248.574 44.6079 248.574 41.5888C248.574 38.5709 250.666 36.4808 253.452 36.4808C257.628 36.4808 260.414 39.0348 262.507 45.3038L264.131 44.8399L263.893 35.7864V35.7864ZM165.687 34.8573C161.741 32.5379 154.775 33.6963 151.062 42.0553L151.292 33.9295L135.739 36.9474V38.3403L137.364 38.5723C139.455 38.8055 140.382 39.9652 140.615 42.9844C141.079 48.5562 140.847 58.3082 140.615 63.1829C140.382 65.9661 139.455 67.3591 137.364 67.5923L135.739 67.8256V69.6824H157.329V67.8256L154.543 67.5923C152.223 67.3591 151.525 65.9661 151.292 63.1829C150.828 58.7708 150.828 49.9492 151.062 44.3774C152.221 42.7511 157.329 41.3595 161.972 44.3774L165.687 34.8573V34.8573Z" fill="#82B0DB"/>
</svg>
