<svg width="331" height="94" viewBox="0 0 331 94" fill="none" xmlns="http://www.w3.org/2000/svg">
<rect width="331" height="94" fill="white"/>
<g clip-path="url(#clip0_546:98)">
<path d="M129.632 42.0197V60.1666H123.042V42.0197H116.384V36.2441H136.29V42.0197H129.632" fill="#82B0DB"/>
<path d="M143.589 46.3941C142.196 46.3941 141.415 47.3507 141.211 49.1275H146.307C146.001 47.3166 145.388 46.3941 143.589 46.3941ZM151.673 52.9563H141.211C141.415 54.9383 142.569 55.8257 144.234 55.8257C145.797 55.8257 147.088 55.4838 148.854 54.5614L151.197 58.4917C148.99 59.7895 146.714 60.5421 143.929 60.5421C138.561 60.5421 135.606 56.7133 135.606 51.2112C135.606 45.027 139.071 41.8488 143.758 41.8488C148.65 41.8488 151.708 45.0952 151.708 51.7585C151.708 52.2723 151.708 52.6476 151.673 52.9563" fill="#82B0DB"/>
<path d="M163.049 60.5421C157.819 60.5421 154.693 57.1938 154.693 51.1446C154.693 45.6418 157.479 41.8488 163.185 41.8488C166.548 41.8488 168.485 43.4204 170.047 45.9494L165.835 49.1618C164.986 47.5893 164.407 46.8379 163.084 46.8379C161.52 46.8379 160.739 48.4102 160.739 51.2463C160.739 54.0841 161.588 55.552 163.253 55.552C164.407 55.552 165.223 54.9031 166.344 53.2283L170.216 56.2695C168.145 59.3457 166.208 60.5421 163.049 60.5421Z" fill="#82B0DB"/>
<path d="M183.902 60.1666V49.9818C183.902 47.6577 183.121 47.043 181.864 47.043C180.572 47.043 179.791 47.6577 179.791 49.9131V60.1666H173.677V37.7138L179.791 35.2531V43.4204C180.912 42.5663 182.169 41.8488 184.275 41.8488C188.182 41.8488 190.051 44.4797 190.051 49.1959V60.1666H183.902Z" fill="#82B0DB"/>
<path d="M204.686 60.5421C197.621 60.5421 193.85 55.2786 193.85 48.2049C193.85 40.5159 198.334 35.868 204.72 35.868C210.563 35.868 212.873 38.397 214.504 42.9082L208.525 45.2662C207.675 43.045 206.86 41.6435 204.686 41.6435C201.935 41.6435 200.746 44.4112 200.746 48.2049C200.746 51.862 201.901 54.7665 204.754 54.7665C206.826 54.7665 207.709 53.6387 209 51.383L214.572 54.3561C212.975 57.5007 210.324 60.5421 204.686 60.5421" fill="#BAD3EA"/>
<path d="M229.613 48.9907C228.832 48.1365 227.949 47.4876 226.761 47.4876C225.264 47.4876 224.347 48.2049 224.347 50.392V60.1666H218.234V42.2242H224.347V43.5228C225.399 42.4977 226.589 41.8488 228.154 41.8488C229.443 41.8488 230.326 42.1557 231.04 42.6004L229.613 48.9907Z" fill="#BAD3EA"/>
<path d="M244.148 60.1666V58.9687C243.061 59.8228 241.77 60.5421 239.699 60.5421C235.792 60.5421 233.924 57.9111 233.924 53.1932V42.2242H240.071V52.409C240.071 54.7315 240.853 55.3469 242.11 55.3469C243.368 55.3469 244.148 54.7315 244.148 52.4758V42.2242H250.297V60.1666H244.148Z" fill="#BAD3EA"/>
<path d="M264.933 60.1666V49.9818C264.933 47.6577 264.152 47.043 262.896 47.043C261.604 47.043 260.823 47.6577 260.823 49.9131V60.1666H254.708V42.2242H260.823V43.4204C261.943 42.5663 263.201 41.8488 265.306 41.8488C269.213 41.8488 271.082 44.4797 271.082 49.1959V60.1666H264.933" fill="#BAD3EA"/>
<path d="M282.998 60.5421C277.767 60.5421 274.642 57.1938 274.642 51.1446C274.642 45.6418 277.429 41.8488 283.135 41.8488C286.498 41.8488 288.435 43.4204 289.996 45.9494L285.784 49.1618C284.935 47.5893 284.357 46.8379 283.033 46.8379C281.469 46.8379 280.688 48.4102 280.688 51.2463C280.688 54.0841 281.537 55.552 283.203 55.552C284.357 55.552 285.172 54.9031 286.292 53.2283L290.165 56.2695C288.094 59.3457 286.157 60.5421 282.998 60.5421" fill="#BAD3EA"/>
<path d="M303.851 60.1666V49.9818C303.851 47.6577 303.07 47.043 301.814 47.043C300.521 47.043 299.741 47.6577 299.741 49.9131V60.1666H293.626V37.7138L299.741 35.2531V43.4204C300.861 42.5663 302.119 41.8488 304.224 41.8488C308.131 41.8488 310 44.4797 310 49.1959V60.1666H303.851" fill="#BAD3EA"/>
<path d="M21 26V39.6666H34.5845V67H48.1692V39.6666H61.7535V26H21Z" fill="#82B0DB"/>
<path d="M75.3381 53.3332V39.6666H61.7534V67H102.507V53.3332H75.3381Z" fill="#82B0DB"/>
<path d="M75.3383 26V39.6666H102.507V26H75.3383Z" fill="#82B0DB"/>
</g>
<defs>
<clipPath id="clip0_546:98">
<rect width="289" height="41" fill="white" transform="translate(21 26)"/>
</clipPath>
</defs>
</svg>
