<svg width="331" height="94" viewBox="0 0 331 94" fill="none" xmlns="http://www.w3.org/2000/svg">
<g clip-path="url(#clip0_545:72)">
<rect width="331" height="94" fill="white"/>
<path fill-rule="evenodd" clip-rule="evenodd" d="M134.363 32.2864V53.4037H139.55H144.737V45.2817C144.737 39.9211 144.737 36.9972 144.737 36.6723C144.899 35.8601 145.061 35.0479 145.548 34.3981C146.196 33.261 147.331 32.7737 148.627 32.9361C150.41 33.0986 151.545 34.0732 151.869 36.185C151.869 36.5099 151.869 39.7587 151.869 44.9568V53.2413H157.056H162.243V43.4948C162.243 35.2103 162.243 33.5859 162.081 32.7737C161.757 29.8498 160.784 27.5756 159.001 25.9512C157.542 24.4892 155.759 23.677 153.652 23.3521C152.842 23.1897 150.572 23.3521 149.924 23.5145C147.979 24.0019 146.52 24.6516 145.223 26.1136L144.413 26.7634V18.9662V11.169H139.226H134.039V32.2864H134.363ZM244.587 11.4939C244.262 12.1437 233.726 37.6469 233.726 37.6469C233.726 37.6469 236.482 37.6469 239.886 37.6469H246.045L251.557 24.4892C254.636 17.1793 257.068 11.169 257.068 11.169C257.068 11.169 254.312 11.169 250.908 11.169H244.749L244.587 11.4939ZM111.67 23.5145C109.401 23.8394 107.618 24.4892 105.835 25.6263C102.269 27.9005 99.9994 31.7991 99.351 36.3474C99.0268 38.4591 99.1889 41.0582 99.6752 43.0075C100.972 48.0432 104.376 51.9418 108.752 53.4037C110.373 53.8911 111.022 54.0535 112.967 54.0535C114.426 54.0535 114.912 54.0535 115.398 53.8911C117.505 53.4037 118.964 52.5915 120.261 51.292L120.909 50.6422V51.9418V53.2413H125.934H130.959V38.6216V24.0019H125.934H120.909V25.3014V26.6009L120.423 26.1136C119.288 24.8141 117.668 24.0019 115.56 23.5145C114.912 23.3521 114.588 23.3521 113.291 23.3521C112.481 23.5145 111.832 23.5145 111.67 23.5145ZM177.804 23.5145C175.049 23.8394 172.131 25.139 170.024 26.7634C165.971 30.1746 163.864 35.5352 164.675 41.0582C165.485 47.231 169.862 51.9418 176.021 53.5662C177.318 53.8911 178.615 54.0535 180.236 54.0535C183.153 54.0535 185.26 53.5662 187.53 52.4291C192.068 50.1549 194.986 46.0939 195.634 41.0582C195.796 39.7587 195.796 37.6469 195.634 36.5098C195.31 34.0732 194.338 31.6366 192.879 29.6873C192.23 28.8751 190.934 27.4131 190.123 26.7634C187.854 24.9765 185.26 23.8394 182.343 23.5145C181.208 23.3521 178.939 23.3521 177.804 23.5145ZM210.871 23.5145C208.116 23.8394 205.36 24.9765 203.253 26.7634C202.442 27.4131 200.983 28.8751 200.497 29.6873C199.038 31.6366 198.228 34.0732 197.742 36.5098C197.579 37.6469 197.579 39.9211 197.742 41.0582C198.714 47.5559 203.415 52.5915 209.899 53.8911C211.195 54.216 211.844 54.216 213.303 54.216C216.058 54.216 218.489 53.7286 220.759 52.4291C226.756 49.3427 229.998 42.5202 228.539 35.5352C227.243 29.0376 222.056 24.3268 215.41 23.5145C214.275 23.3521 212.006 23.3521 210.871 23.5145ZM65.7977 24.1643C65.7977 24.1643 68.5533 30.8244 71.9573 38.9465C75.3612 47.0685 78.1168 53.7286 78.1168 53.7286C78.1168 53.7286 77.1443 56.1653 75.8475 59.0892C74.5508 62.0131 73.5782 64.2873 73.5782 64.4498C73.5782 64.6122 76.0096 64.4498 79.0894 64.4498H84.6005L92.8673 44.4695C97.4059 33.4235 101.134 24.4892 101.134 24.3267C101.134 24.3267 99.9994 24.1643 95.6229 24.3267H90.1117L86.7077 32.7737C85.2489 37.3221 83.7901 41.2206 83.7901 41.2206C83.7901 41.2206 82.3312 37.3221 80.3861 32.7737L77.1443 24.3267H71.471C68.3912 24.1643 65.7977 24.1643 65.7977 24.1643ZM116.695 32.9361C118.802 33.4235 120.423 35.0479 121.071 37.1596C121.234 37.9718 121.234 39.4338 121.071 40.246C120.585 42.3577 118.964 43.9822 116.857 44.4695C116.047 44.6319 114.588 44.6319 113.777 44.4695C111.994 43.9822 110.373 42.6826 109.725 41.0582C108.915 39.2714 109.239 36.9972 110.211 35.3728C111.67 33.261 114.101 32.4488 116.695 32.9361ZM181.37 33.0986C183.639 33.4235 185.422 35.2103 185.909 37.4845C186.071 38.2967 186.071 39.5962 185.909 40.4084C185.422 42.5202 183.802 43.9822 181.856 44.6319C181.208 44.7944 179.425 44.7944 178.777 44.6319C177.156 44.1446 175.859 43.0075 175.049 41.5455C174.562 40.5709 174.562 40.0836 174.562 38.9465C174.562 37.9718 174.724 37.4845 175.049 36.6723C175.535 35.6976 176.183 34.723 177.156 34.0732C178.128 33.0986 179.749 32.7737 181.37 33.0986ZM214.275 33.0986C216.22 33.4235 217.841 34.723 218.49 36.5098C218.814 37.3221 218.976 37.8094 218.976 38.784C218.976 39.9211 218.814 40.4084 218.49 41.3831C217.841 42.8451 216.382 43.9822 214.761 44.4695C214.113 44.6319 212.33 44.6319 211.682 44.4695C209.736 43.9822 208.116 42.3577 207.629 40.246C207.467 39.4338 207.467 37.9718 207.629 37.1596C208.278 34.5606 210.547 32.7737 213.14 32.7737C213.465 32.9361 213.951 32.9361 214.275 33.0986ZM236.32 40.246C233.24 40.5709 230.971 42.8451 230.322 45.769C230.16 46.5812 230.16 48.0432 230.322 48.8554C230.971 51.4545 232.916 53.2413 235.509 53.8911C235.833 53.8911 236.482 54.0535 236.968 54.0535C238.913 54.0535 240.534 53.4037 241.831 52.1042C243.29 50.6422 243.776 49.1803 243.776 47.231C243.776 44.7944 242.641 42.6826 240.696 41.5455C239.4 40.4084 237.616 40.0836 236.32 40.246ZM150.897 56.1653C148.789 56.815 147.817 59.2516 148.952 61.0385C149.276 61.5258 149.924 62.1756 150.41 62.338C150.897 62.5005 150.897 62.5005 151.869 62.5005C152.68 62.5005 152.842 62.5005 153.328 62.338C153.976 62.0131 154.625 61.3634 154.949 60.7136C155.759 59.0892 154.949 57.1399 153.328 56.3277C152.842 56.0028 152.68 56.0028 152.031 56.0028C151.383 56.0028 151.221 56.0028 150.897 56.1653ZM142.144 56.3277C139.388 56.815 137.605 58.6019 136.795 61.5258C136.632 62.0131 136.632 62.5005 136.632 63.1502V64.2873H135.498H134.363V66.7239V69.1605H135.498H136.632V75.0084V80.8563H139.712H142.792V75.0084V69.1605H144.899H147.006V66.7239V64.2873H144.899H142.792V63.8C142.954 62.6629 143.44 61.8507 144.413 61.6883C145.061 61.5258 146.034 61.5258 146.682 61.8507C147.006 62.0131 147.168 62.0131 147.168 62.0131C147.168 62.0131 147.168 60.876 147.168 59.4141V56.815L146.682 56.6526C146.034 56.3277 145.223 56.3277 144.089 56.3277C143.278 56.1652 142.63 56.3277 142.144 56.3277ZM166.782 63.9624C165.485 64.2873 164.512 64.9371 163.864 65.7493L163.54 66.2366V65.262V64.2873H160.46H157.38V72.5718V80.8563H160.46H163.54V76.308C163.54 73.7089 163.54 71.5972 163.54 71.2723C163.702 70.6225 164.026 69.9728 164.35 69.6479C165.161 68.9981 166.62 69.1605 167.268 69.9728C167.754 70.6225 167.754 70.6225 167.754 75.8207V80.6939H170.834H173.914V75.1709C173.914 69.323 173.914 68.6732 173.59 67.5361C173.266 66.5615 172.941 65.7493 172.131 65.0995C171.482 64.4498 170.834 63.9624 169.862 63.8C169.051 63.8 167.43 63.8 166.782 63.9624ZM182.181 63.8C181.208 63.9624 179.749 64.4498 178.939 65.0995C177.156 66.399 176.021 68.3483 175.535 70.785C175.373 71.7596 175.373 73.5465 175.535 74.5211C175.859 75.9831 176.345 77.4451 177.156 78.4197C178.29 79.8817 179.749 80.8563 181.532 81.1812C182.505 81.3437 184.126 81.3437 184.936 81.0188C185.909 80.6939 186.557 80.369 187.368 79.7192L188.016 79.0695V79.8817V80.6939H191.096H194.176V72.4094V64.1249H191.096H188.016V64.9371V65.7493L187.53 65.5868C186.719 64.7746 185.585 64.1249 184.288 63.9624C183.802 63.8 182.667 63.8 182.181 63.8ZM205.684 63.9624C204.549 64.1249 203.415 64.9371 202.766 65.7493L202.442 66.0742V65.0995V64.1249H199.363H196.283V72.4094V80.6939H199.363H202.442V75.9831C202.442 70.9474 202.442 70.9474 202.766 70.1352C203.091 69.4854 203.739 69.1605 204.387 69.1605C205.036 69.1605 205.36 69.323 205.846 69.6479C206.495 70.2976 206.495 70.1352 206.495 75.6582V80.5314H209.574H212.654V74.5211C212.654 68.5108 212.654 68.5108 212.492 67.861C212.33 67.5361 212.168 66.8864 212.006 66.3991C211.682 65.7493 211.519 65.5868 211.033 65.0995C210.385 64.4498 209.899 64.1249 209.25 63.8C208.116 63.8 206.819 63.6376 205.684 63.9624ZM221.731 63.9624C218.976 64.4498 216.869 65.7493 215.572 68.0235C215.248 68.6732 214.923 69.4854 214.599 70.2976C214.437 71.1099 214.437 71.2723 214.437 72.5718C214.437 74.0338 214.437 74.5211 214.923 75.6582C215.896 78.4197 218.165 80.5314 221.245 81.1812C221.731 81.3437 222.218 81.3437 223.352 81.3437C224.973 81.3437 225.622 81.1812 226.756 80.6939L227.405 80.369V77.6075V74.846L226.918 75.1709C226.108 75.6582 225.622 75.8207 224.649 75.8207C223.676 75.8207 223.19 75.8206 222.542 75.4958C221.893 75.1709 221.407 74.6836 221.083 74.0338C220.921 73.5465 220.921 73.5465 220.921 72.7343C220.921 72.0845 220.921 71.9221 221.083 71.4347C221.569 70.1352 222.704 69.4854 224.325 69.323C225.46 69.323 225.946 69.323 227.567 70.1352C227.567 70.1352 227.567 68.8357 227.567 67.3737V64.6122L227.08 64.4498C225.297 63.8 223.352 63.6376 221.731 63.9624ZM235.671 63.9624C230.971 64.7746 228.053 68.8357 228.377 73.5465C228.539 75.1709 229.026 76.6329 229.836 77.7699C230.971 79.5568 232.754 80.6939 235.023 81.1812C235.996 81.3437 238.589 81.3437 239.724 81.1812C241.345 80.8563 242.803 80.0441 243.938 78.907C244.424 78.4197 245.235 77.2826 245.235 77.2826C245.235 77.2826 244.1 76.7953 242.641 76.308L240.048 75.3333L239.724 75.6582C239.237 76.1455 238.913 76.308 238.265 76.4704C236.482 76.9577 234.699 75.9831 234.375 74.3587V74.0338H240.048H245.721V72.5718C245.721 71.5972 245.721 70.9474 245.559 70.6225C245.235 68.6732 244.424 67.3737 243.29 66.0742C242.155 64.9371 240.858 64.2873 239.075 63.9624C238.427 63.8 236.482 63.8 235.671 63.9624ZM148.789 72.5718V80.8563H151.869H154.949V72.5718V64.2873H151.869H148.789V72.5718ZM238.103 68.5108C238.589 68.6732 238.751 68.8357 239.237 69.1605C239.562 69.4854 239.886 69.8103 239.886 70.2976V70.6225H237.13C234.05 70.6225 234.213 70.6225 234.537 69.9728C235.023 68.8357 236.482 68.1859 238.103 68.5108ZM185.747 69.323C186.557 69.4854 187.53 70.2976 187.854 71.1099C188.664 72.8967 187.854 75.0084 185.909 75.6582C185.26 75.8206 184.288 75.8206 183.639 75.6582C182.667 75.3333 181.694 74.5211 181.532 73.5465C181.37 73.0592 181.37 72.8967 181.37 72.4094C181.37 71.7596 181.37 71.5972 181.694 71.1099C182.343 69.6479 183.964 68.9981 185.747 69.323Z" fill="#82B0DB"/>
</g>
<defs>
<clipPath id="clip0_545:72">
<rect width="331" height="94" fill="white"/>
</clipPath>
</defs>
</svg>
